<?xml version="1.0" standalone="no"?>
<!DOCTYPE svg PUBLIC "-//W3C//DTD SVG 20010904//EN"
 "http://www.w3.org/TR/2001/REC-SVG-20010904/DTD/svg10.dtd">
<svg version="1.0" xmlns="http://www.w3.org/2000/svg"
 width="330.000000pt" height="330.000000pt" viewBox="0 0 330.000000 330.000000"
 preserveAspectRatio="xMidYMid meet">
<metadata>
Created by potrace 1.15, written by Peter Selinger 2001-2017
</metadata>
<g transform="translate(0.000000,330.000000) scale(0.100000,-0.100000)"
fill="#ffffff" stroke="none">
<path d="M727 2963 c-14 -13 -6 -112 12 -166 35 -102 134 -247 203 -299 105
-78 358 -218 736 -407 l242 -121 0 -608 0 -609 364 -181 c200 -100 367 -182
370 -182 3 0 6 66 6 148 0 125 -3 153 -20 191 -21 46 -195 223 -317 323 l-63
51 0 471 c0 259 -4 498 -10 530 -15 91 -17 93 -360 279 -380 206 -1125 587
-1148 587 -5 0 -12 -3 -15 -7z"/>
<path d="M965 2240 c-9 -14 21 -142 48 -210 56 -137 126 -229 231 -299 161
-109 458 -262 475 -246 3 4 7 91 9 193 l3 187 -338 173 c-381 196 -420 214
-428 202z"/>
<path d="M1232 1430 c3 -61 11 -84 63 -187 82 -163 175 -254 360 -352 l60 -32
7 38 c4 21 7 113 7 204 l1 166 -242 116 c-134 65 -247 117 -252 117 -4 0 -6
-31 -4 -70z"/>
</g>
</svg>
